PathFileType	4	(X/Y/Z)	OpenSim_Sub08_CSStiffKnee_Magnet.trc
DataRate	CameraRate	NumFrames	NumMarkers	Units	OrigDataRate	OrigDataStartFrame	OrigNumFrames
100	100	16	8	m	100	1981	5282
Frame#	Time	torso_imu_offset_imu	pelvis_imu_offset_imu	tibia_r_imu_offset_imu	femur_r_imu_offset_imu	tibia_l_imu_offset_imu	femur_l_imu_offset_imu	toes_r_imu_offset_imu	toes_l_imu_offset_imu
				X1	Y1	Z1	X2	Y2	Z2	X3	Y3	Z3	X4	Y4	Z4	X5	Y5	Z5	X6	Y6	Z6	X7	Y7	Z7	X8		Y8	Z8	

1981	19.80000000	-0.93453234	-0.19761922	0.06103125	-0.60447538	0.21861028	-0.69415419	-0.35109705	-0.76115747	-0.11901587	-0.67470492	-0.50556824	-0.13293421	-0.73638688	0.26528208	0.24364664	-0.61391759	-0.14451871	0.28487659	-0.80271576	-0.39557827	-0.23195239	-0.68641316	-0.24225142	-0.37696156
1982	19.81000000	-0.93336707	-0.19899418	0.05955531	-0.60195274	0.22329489	-0.68571744	-0.33552722	-0.77165462	-0.10527246	-0.67752865	-0.50367361	-0.13384432	-0.73013413	0.27123599	0.24196093	-0.61242387	-0.13201883	0.29930669	-0.80090837	-0.41509910	-0.20504779	-0.69438916	-0.24755307	-0.37396108
1983	19.82000000	-0.92938150	-0.19826533	0.05670365	-0.60767879	0.22430128	-0.68355141	-0.32293784	-0.77841331	-0.09023453	-0.68140473	-0.49899445	-0.13167428	-0.72719947	0.27617670	0.24715876	-0.61198607	-0.11890986	0.29533240	-0.79882751	-0.42537696	-0.19691019	-0.69557645	-0.24489241	-0.37310711
1984	19.83000000	-0.92845232	-0.20084339	0.05698386	-0.60466236	0.22819411	-0.69467155	-0.30478892	-0.78510289	-0.07605603	-0.68968780	-0.48856908	-0.12699420	-0.72556712	0.28302172	0.25209877	-0.61098824	-0.10642222	0.30000407	-0.79354647	-0.43365356	-0.19761881	-0.69044903	-0.23732318	-0.37289922
1985	19.84000000	-0.92861786	-0.20319411	0.05914154	-0.59937590	0.23010829	-0.69074765	-0.28950886	-0.78936590	-0.06748508	-0.69698893	-0.48724949	-0.12304304	-0.71452516	0.28252993	0.25866541	-0.60485821	-0.09111275	0.30448506	-0.77677197	-0.45997205	-0.19959632	-0.69387319	-0.23171625	-0.37458474
1986	19.85000000	-0.92790873	-0.20342194	0.05642460	-0.59994755	0.23171310	-0.69107909	-0.28146727	-0.79028303	-0.08457702	-0.69685397	-0.48281023	-0.12439277	-0.70847722	0.28561918	0.26627871	-0.60810004	-0.08799552	0.30825645	-0.75994926	-0.48256123	-0.20031654	-0.69809171	-0.23739045	-0.37382030
1987	19.86000000	-0.93106795	-0.20726978	0.05256283	-0.59598964	0.22972943	-0.69465338	-0.28573256	-0.78821048	-0.10846060	-0.70541382	-0.47060611	-0.12328263	-0.71154646	0.28638961	0.27512726	-0.60669374	-0.08897929	0.32281040	-0.73979699	-0.50477240	-0.21389053	-0.69555286	-0.23830621	-0.36832419
1988	19.87000000	-0.93058322	-0.20345945	0.05272060	-0.59971264	0.23120743	-0.69250741	-0.29444474	-0.78215454	-0.13578759	-0.70918288	-0.47131247	-0.12213108	-0.71038493	0.28708437	0.27810975	-0.60254423	-0.08654408	0.32454407	-0.71463829	-0.52590843	-0.23672447	-0.69626924	-0.23559333	-0.36607931
1989	19.88000000	-0.93055267	-0.20331867	0.05570713	-0.60730094	0.23289396	-0.69083475	-0.30513622	-0.77036573	-0.16461328	-0.71121229	-0.47327576	-0.12161978	-0.70512381	0.29067530	0.28507150	-0.60257270	-0.08242413	0.31776307	-0.68900273	-0.54488499	-0.25818635	-0.69631105	-0.24058611	-0.36734219
1990	19.89000000	-0.93143421	-0.20793624	0.05571998	-0.61045761	0.23641835	-0.68645597	-0.31807961	-0.76162653	-0.19132652	-0.71208082	-0.46999513	-0.12512166	-0.70205859	0.29511807	0.29254036	-0.59986434	-0.08330229	0.32633802	-0.66414743	-0.56109122	-0.28478963	-0.69448180	-0.24173061	-0.36245805
1991	19.90000000	-0.93358400	-0.20706100	0.05335306	-0.61065914	0.23818040	-0.68696637	-0.33349295	-0.74410240	-0.21873288	-0.71341242	-0.46974184	-0.12438270	-0.69980460	0.29984843	0.29342443	-0.59712145	-0.08189310	0.32997911	-0.64272016	-0.57155813	-0.30996152	-0.69498049	-0.24589396	-0.36162748
1992	19.91000000	-0.92983993	-0.20673778	0.05020279	-0.60697097	0.23389368	-0.68875417	-0.35606536	-0.73098860	-0.23067920	-0.71353386	-0.46695637	-0.12472166	-0.69873414	0.30257659	0.29594029	-0.59822961	-0.07264558	0.33418306	-0.61156054	-0.58480525	-0.33745405	-0.69353362	-0.24704531	-0.36321227
1993	19.92000000	-0.93082705	-0.20942476	0.05280991	-0.60906999	0.23917825	-0.68689020	-0.37652351	-0.71966806	-0.23227083	-0.71171650	-0.46642032	-0.13225191	-0.69910584	0.30725885	0.29674141	-0.59778998	-0.06749823	0.34039842	-0.58251657	-0.59013789	-0.36317027	-0.69180453	-0.24486754	-0.36347083
1994	19.93000000	-0.92885301	-0.21069004	0.05075219	-0.61080019	0.24594796	-0.68749278	-0.39983337	-0.70924754	-0.23116960	-0.71309737	-0.46518574	-0.13426371	-0.69170139	0.31189400	0.30359358	-0.59276396	-0.06385551	0.34346989	-0.56884232	-0.58900621	-0.39473935	-0.69437015	-0.24693480	-0.36057717
1995	19.94000000	-0.92260779	-0.20923071	0.05060896	-0.60828224	0.24349167	-0.68737605	-0.41934577	-0.70707627	-0.21524328	-0.71570775	-0.46409671	-0.13357939	-0.68994248	0.31476352	0.30593129	-0.58858819	-0.04872072	0.34498876	-0.55675814	-0.57916614	-0.42139795	-0.69846964	-0.24661066	-0.35980973
1996	19.95000000	-0.92673771	-0.20751687	0.05320910	-0.60475362	0.24892750	-0.68733203	-0.43941791	-0.69279537	-0.20439443	-0.71652099	-0.46284940	-0.13616609	-0.69095357	0.31897556	0.30214791	-0.58663467	-0.03670035	0.34887170	-0.54455087	-0.56304787	-0.44606899	-0.69818330	-0.24611457	-0.36635302
